<svg width="36" height="36" viewBox="0 0 36 36" fill="none" xmlns="http://www.w3.org/2000/svg">
<circle cx="18" cy="18" r="18" fill="white"/>
<path fill-rule="evenodd" clip-rule="evenodd" d="M26.5838 9.41622C27.1387 9.97117 27.1387 10.8709 26.5838 11.4259L11.4259 26.5838C10.8709 27.1387 9.97117 27.1387 9.41622 26.5838C8.86126 26.0288 8.86126 25.1291 9.41622 24.5741L24.5741 9.41622C25.1291 8.86126 26.0288 8.86126 26.5838 9.41622Z" fill="#F1B4A7"/>
<path fill-rule="evenodd" clip-rule="evenodd" d="M9.41622 9.41622C8.86126 9.97117 8.86126 10.8709 9.41622 11.4259L24.5741 26.5838C25.1291 27.1387 26.0288 27.1387 26.5838 26.5838C27.1387 26.0288 27.1387 25.1291 26.5838 24.5741L11.4259 9.41622C10.8709 8.86126 9.97117 8.86126 9.41622 9.41622Z" fill="#F1B4A7"/>
</svg>
