<svg width="188" height="63" viewBox="0 0 188 63" fill="none" xmlns="http://www.w3.org/2000/svg">
<path d="M63.11 31.0422C63.0183 25.1359 61.3213 19.6417 58.4089 14.9488C58.363 14.8801 58.3401 14.8114 58.2942 14.7656C55.4965 10.4618 52.1025 7.53161 49.901 5.86047C49.878 5.83757 49.8551 5.83757 49.8322 5.81468C49.534 5.60865 49.2588 5.40262 48.9607 5.21948C43.9615 1.92296 37.9761 0 31.555 0C14.1264 0 0 14.1017 0 31.5C0 38.2533 2.13272 44.5029 5.75604 49.6308C11.3057 57.5058 20.4099 62.7253 30.7294 62.9771C31.0046 62.9771 31.2798 62.9771 31.555 62.9771C31.6697 62.9771 31.7843 62.9771 31.8761 62.9771C36.3938 62.9084 40.8885 61.8783 44.9705 59.9553C51.8961 56.6817 57.5145 50.867 60.5416 43.839C62.1239 40.1533 62.9724 36.1701 63.0871 32.141C63.0871 32.0036 63.0871 31.8663 63.0871 31.7289C63.0871 31.6374 63.0871 31.5458 63.0871 31.4542C63.11 31.3398 63.11 31.1795 63.11 31.0422ZM52.8592 26.0745C52.4923 26.4866 51.1852 26.7613 48.5479 27.3336C48.2498 27.4023 47.5618 27.5854 46.9656 28.1577C45.5897 29.4626 47.3555 30.9506 47.4472 32.3928C47.493 32.9651 47.3555 33.5603 47.0344 34.0182C46.7592 34.4073 46.3235 34.6592 46.0254 35.0254C45.6126 35.552 45.8648 36.0327 45.9107 36.6279C45.9795 37.681 44.8788 38.4135 44.0532 38.8256C43.0442 39.3521 41.9663 39.8786 41.6682 41.069C41.393 42.1908 41.6911 43.3583 41.6223 44.48C41.4618 47.3416 41.1866 50.02 39.031 52.1261C38.7787 52.3779 38.5035 52.5839 38.1825 52.7671C36.6919 53.6599 34.7656 53.2249 33.1832 52.8586C30.5919 52.2405 28.0693 51.302 25.6155 50.2947C19.8595 47.9597 19.7448 47.2958 17.4745 46.8837C14.929 46.4259 11.2369 46.5632 6.30642 49.2874C2.66016 44.1366 0.687973 37.9557 0.687973 31.5C0.687973 23.2587 3.89851 15.5211 9.72335 9.7064C15.5482 3.89172 23.3223 0.686773 31.555 0.686773C37.7468 0.686773 43.6633 2.49528 48.6855 5.86047C48.2957 7.02798 47.86 8.76781 48.0205 10.8739C48.1581 12.7282 48.6855 13.8957 49.9697 16.8717C53.0656 23.9226 53.5243 25.3419 52.8592 26.0745Z" fill="#CC9A71"/>
<path d="M82.144 36.4451C81.0891 35.8728 80.2636 35.0715 79.6673 34.0414C79.0711 33.0341 78.7729 31.8895 78.7729 30.6304C78.7729 29.3713 79.0711 28.2267 79.6673 27.2194C80.2636 26.2122 81.0662 25.4109 82.1211 24.8157C83.176 24.2205 84.3226 23.9458 85.6068 23.9458C87.6937 23.9458 89.4136 24.6326 90.7437 26.029L89.1613 27.517C88.267 26.5555 87.0974 26.0748 85.6985 26.0748C84.85 26.0748 84.1162 26.2579 83.4282 26.6471C82.7632 27.0363 82.2357 27.5628 81.8459 28.2496C81.456 28.9364 81.2726 29.7147 81.2726 30.5846C81.2726 31.4774 81.456 32.2558 81.8459 32.9425C82.2357 33.6293 82.7632 34.1787 83.4282 34.545C84.0933 34.9113 84.85 35.1173 85.6756 35.1173C87.0974 35.1173 88.267 34.6137 89.2072 33.6293L90.7895 35.0944C90.1704 35.8041 89.4136 36.3306 88.5422 36.6969C87.6707 37.0632 86.7076 37.2463 85.6985 37.2463C84.3685 37.315 83.176 37.0174 82.144 36.4451Z" fill="#CC9A71"/>
<path d="M98.7701 26.9215L98.7013 29.2794C98.4032 29.1878 98.0592 29.142 97.6923 29.142C96.8209 29.142 96.1329 29.4854 95.6284 30.1722C95.1239 30.859 94.8946 31.7747 94.8946 32.9193V37.1086H92.6013V26.9901H94.8946V28.295C95.2615 27.8143 95.6743 27.4709 96.2017 27.242C96.7062 26.9901 97.2337 26.8757 97.784 26.8757C98.0822 26.8528 98.4032 26.8757 98.7701 26.9215Z" fill="#CC9A71"/>
<path d="M108.448 26.9902H110.97L106.728 37.1087L106.384 37.8641C105.971 38.8027 105.489 39.4666 104.939 39.8787C104.389 40.2679 103.632 40.4739 102.669 40.4739C102.256 40.4739 101.82 40.4052 101.384 40.2907C100.949 40.1534 100.605 40.016 100.33 39.8558L101.018 38.1617C101.27 38.2762 101.522 38.3907 101.797 38.4593C102.072 38.528 102.325 38.5509 102.554 38.5509C102.99 38.5509 103.311 38.4593 103.517 38.2762C103.724 38.0931 103.93 37.7726 104.136 37.2918L104.228 37.0858H104.205L99.9397 26.9902H102.462L105.443 34.499H105.466L108.448 26.9902Z" fill="#CC9A71"/>
<path d="M113.607 36.9484C112.828 36.7195 112.117 36.4219 111.521 36.0785L112.461 34.2013C113.653 34.8881 114.846 35.2086 116.061 35.2086C116.726 35.2086 117.231 35.1399 117.575 34.9797C117.919 34.8194 118.102 34.5676 118.102 34.2013C118.102 33.9724 118.033 33.7893 117.896 33.629C117.758 33.4917 117.506 33.3543 117.185 33.2627C116.841 33.1483 116.359 33.0567 115.74 32.9422C114.754 32.782 113.997 32.576 113.424 32.3013C112.874 32.0265 112.461 31.7061 112.208 31.3169C111.956 30.9277 111.842 30.447 111.842 29.8747C111.842 28.8903 112.186 28.1348 112.851 27.5854C113.539 27.0589 114.479 26.7842 115.717 26.7842C116.428 26.7842 117.185 26.8758 118.033 27.0818C118.882 27.2878 119.524 27.5396 120.006 27.8372L119.088 29.7602C118.607 29.4855 118.056 29.2566 117.437 29.0963C116.818 28.9361 116.199 28.8674 115.557 28.8674C114.616 28.8674 114.158 29.1421 114.158 29.6915C114.158 29.9662 114.295 30.1723 114.593 30.3325C114.892 30.4928 115.465 30.653 116.336 30.8361C117.368 31.0651 118.194 31.3169 118.767 31.6145C119.34 31.9121 119.753 32.2555 120.006 32.6675C120.235 33.0567 120.372 33.5603 120.372 34.1098C120.372 35.117 119.983 35.8954 119.18 36.4448C118.377 37.0171 117.299 37.2918 115.946 37.2918C115.19 37.2918 114.387 37.1773 113.607 36.9484Z" fill="#CC9A71"/>
<path d="M129.591 36.6281C129.224 36.8342 128.766 36.9944 128.238 37.1089C127.711 37.2233 127.206 37.292 126.748 37.292C125.693 37.292 124.89 37.0173 124.294 36.445C123.721 35.8727 123.422 35.0715 123.422 33.9955V29.0279H121.519V26.9675H123.468L123.629 24.312H125.716V26.9675H129.178V29.0279H125.716V33.6521C125.716 34.1558 125.853 34.5449 126.106 34.8196C126.358 35.1172 126.725 35.2546 127.16 35.2546C127.459 35.2546 127.803 35.2088 128.169 35.1401C128.536 35.0715 128.857 34.9799 129.133 34.8425L129.591 36.6281Z" fill="#CC9A71"/>
<path d="M139.154 27.86C139.934 28.5926 140.347 29.6456 140.347 30.9963V37.0857H138.053V35.8724C137.686 36.2615 137.205 36.6049 136.609 36.8796C136.012 37.1543 135.279 37.2917 134.453 37.2917C133.742 37.2917 133.123 37.1543 132.595 36.8796C132.068 36.6049 131.655 36.2157 131.357 35.7121C131.059 35.2085 130.921 34.6591 130.921 34.041C130.921 33.0566 131.265 32.2554 131.93 31.6144C132.595 30.9734 133.627 30.6529 135.003 30.6529C135.967 30.6529 136.976 30.6987 138.053 30.8131C138.007 30.1721 137.778 29.6685 137.32 29.3251C136.861 28.9817 136.219 28.7986 135.393 28.7986C134.935 28.7986 134.43 28.8902 133.903 29.0962C133.375 29.3022 132.939 29.5541 132.573 29.8974L131.449 28.2034C132.045 27.6998 132.71 27.3335 133.444 27.1046C134.178 26.8527 134.912 26.7383 135.623 26.7383C137.182 26.7612 138.374 27.1275 139.154 27.86ZM137.136 34.5675C137.664 34.1096 137.962 33.5373 138.03 32.8735V32.7132C137.274 32.5987 136.448 32.553 135.554 32.553C134.682 32.553 134.063 32.6674 133.673 32.9192C133.306 33.1711 133.123 33.5144 133.123 33.9494C133.123 34.8193 133.811 35.2543 135.21 35.2543C135.967 35.2543 136.609 35.0253 137.136 34.5675Z" fill="#CC9A71"/>
<path d="M145.392 37.1087H143.098V23.4648H145.392V37.1087Z" fill="#CC9A71"/>
<path d="M156.009 36.8114C155.069 36.468 154.243 36.033 153.555 35.4607L154.656 33.6293C156.124 34.6366 157.614 35.1402 159.151 35.1402C159.931 35.1402 160.55 35.0029 160.986 34.7053C161.421 34.4305 161.628 34.0643 161.628 33.6064C161.628 33.2401 161.536 32.9654 161.33 32.7365C161.123 32.5076 160.825 32.3244 160.435 32.1871C160.045 32.0268 159.472 31.8895 158.715 31.7292C157.133 31.3858 155.94 30.9051 155.138 30.287C154.335 29.6689 153.922 28.799 153.922 27.7002C153.922 26.9218 154.152 26.235 154.587 25.6627C155.023 25.0904 155.619 24.6784 156.376 24.3808C157.133 24.0832 157.981 23.9458 158.945 23.9458C159.839 23.9458 160.687 24.0832 161.444 24.335C162.201 24.5868 162.958 24.976 163.669 25.5025L162.384 27.2423C161.926 26.8989 161.375 26.6471 160.733 26.4411C160.114 26.235 159.472 26.1435 158.807 26.1435C157.225 26.1435 156.445 26.67 156.445 27.7459C156.445 28.2038 156.674 28.593 157.11 28.8677C157.546 29.1424 158.302 29.4171 159.357 29.646C160.481 29.8978 161.375 30.1725 162.063 30.4701C162.751 30.7678 163.256 31.1569 163.6 31.6377C163.944 32.1184 164.127 32.7365 164.127 33.4691C164.127 34.2474 163.898 34.9342 163.462 35.5294C163.027 36.1017 162.407 36.5595 161.628 36.88C160.848 37.2005 159.954 37.3608 158.967 37.3608C157.936 37.315 156.949 37.1319 156.009 36.8114Z" fill="#CC9A71"/>
<path d="M174.631 27.4711C175.387 27.929 175.984 28.5471 176.442 29.3483C176.878 30.1495 177.107 31.0652 177.107 32.0725C177.107 33.1026 176.878 34.0183 176.442 34.8196C176.007 35.6208 175.387 36.2389 174.654 36.651C173.897 37.0859 173.071 37.292 172.131 37.292C171.397 37.292 170.732 37.1775 170.113 36.9486C169.494 36.7197 168.989 36.3763 168.553 35.9184V40.2909H166.26V26.9904H168.553V28.1808C168.989 27.7229 169.54 27.3795 170.136 27.1506C170.755 26.9217 171.42 26.8072 172.131 26.8072C173.048 26.7843 173.874 27.0133 174.631 27.4711ZM173.966 34.3159C174.539 33.7436 174.837 32.9882 174.837 32.0496C174.837 31.0881 174.562 30.3098 173.988 29.7375C173.415 29.1423 172.681 28.8675 171.764 28.8675C170.824 28.8675 170.067 29.1423 169.471 29.7375C168.875 30.3098 168.576 31.0881 168.576 32.0496C168.576 33.034 168.875 33.7894 169.448 34.3617C170.044 34.934 170.801 35.2088 171.764 35.2088C172.635 35.1859 173.392 34.9111 173.966 34.3159Z" fill="#CC9A71"/>
<path d="M186.807 27.86C187.61 28.5926 188 29.6456 188 30.9963V37.0857H185.707V35.8724C185.34 36.2615 184.858 36.6049 184.262 36.8796C183.666 37.1543 182.932 37.2917 182.106 37.2917C181.395 37.2917 180.776 37.1543 180.249 36.8796C179.721 36.6049 179.309 36.2157 179.01 35.7121C178.712 35.2085 178.575 34.6591 178.575 34.041C178.575 33.0566 178.919 32.2554 179.584 31.6144C180.249 30.9734 181.281 30.6529 182.657 30.6529C183.62 30.6529 184.629 30.6987 185.707 30.8131C185.661 30.1721 185.432 29.6685 184.973 29.3251C184.514 28.9817 183.872 28.7986 183.047 28.7986C182.588 28.7986 182.083 28.8902 181.556 29.0962C181.028 29.3022 180.593 29.5541 180.226 29.8974L179.102 28.2034C179.698 27.6998 180.363 27.3335 181.097 27.1046C181.831 26.8527 182.565 26.7383 183.276 26.7383C184.835 26.7612 186.028 27.1275 186.807 27.86ZM184.789 34.5675C185.317 34.1096 185.615 33.5373 185.684 32.8735V32.7132C184.927 32.5987 184.101 32.553 183.207 32.553C182.336 32.553 181.716 32.6674 181.327 32.9192C180.96 33.1711 180.776 33.5144 180.776 33.9494C180.776 34.8193 181.464 35.2543 182.863 35.2543C183.62 35.2543 184.262 35.0253 184.789 34.5675Z" fill="#CC9A71"/>
<path d="M188 15.4067H78.7729V16.0935H188V15.4067Z" fill="#CC9A71"/>
<path d="M188 46.9067H78.7729V47.5935H188V46.9067Z" fill="#CC9A71"/>
</svg>
