<svg width="64" height="63" viewBox="0 0 64 63" fill="none" xmlns="http://www.w3.org/2000/svg">
<path d="M63.11 31.0422C63.0183 25.1359 61.3213 19.6417 58.4089 14.9488C58.363 14.8801 58.3401 14.8114 58.2942 14.7656C55.4965 10.4618 52.1025 7.53161 49.901 5.86047C49.878 5.83757 49.8551 5.83757 49.8322 5.81468C49.534 5.60865 49.2588 5.40262 48.9607 5.21948C43.9615 1.92296 37.9761 0 31.555 0C14.1264 0 0 14.1017 0 31.5C0 38.2533 2.13272 44.5029 5.75604 49.6308C11.3057 57.5058 20.4099 62.7253 30.7294 62.9771C31.0046 62.9771 31.2798 62.9771 31.555 62.9771C31.6697 62.9771 31.7843 62.9771 31.8761 62.9771C36.3938 62.9084 40.8885 61.8783 44.9705 59.9553C51.8961 56.6817 57.5145 50.867 60.5416 43.839C62.1239 40.1533 62.9724 36.1701 63.0871 32.141C63.0871 32.0036 63.0871 31.8663 63.0871 31.7289C63.0871 31.6374 63.0871 31.5458 63.0871 31.4542C63.11 31.3398 63.11 31.1795 63.11 31.0422ZM52.8592 26.0745C52.4923 26.4866 51.1852 26.7613 48.5479 27.3336C48.2498 27.4023 47.5618 27.5854 46.9656 28.1577C45.5897 29.4626 47.3555 30.9506 47.4472 32.3928C47.493 32.9651 47.3555 33.5603 47.0344 34.0182C46.7592 34.4073 46.3235 34.6592 46.0254 35.0254C45.6126 35.552 45.8648 36.0327 45.9107 36.6279C45.9795 37.681 44.8788 38.4135 44.0532 38.8256C43.0442 39.3521 41.9663 39.8786 41.6682 41.069C41.393 42.1908 41.6911 43.3583 41.6223 44.48C41.4618 47.3416 41.1866 50.02 39.031 52.1261C38.7787 52.3779 38.5035 52.5839 38.1825 52.7671C36.6919 53.6599 34.7656 53.2249 33.1832 52.8586C30.5919 52.2405 28.0693 51.302 25.6155 50.2947C19.8595 47.9597 19.7448 47.2958 17.4745 46.8837C14.929 46.4259 11.2369 46.5632 6.30642 49.2874C2.66016 44.1366 0.687973 37.9557 0.687973 31.5C0.687973 23.2587 3.89851 15.5211 9.72335 9.7064C15.5482 3.89172 23.3223 0.686773 31.555 0.686773C37.7468 0.686773 43.6633 2.49528 48.6855 5.86047C48.2957 7.02798 47.86 8.76781 48.0205 10.8739C48.1581 12.7282 48.6855 13.8957 49.9697 16.8717C53.0656 23.9226 53.5243 25.3419 52.8592 26.0745Z" fill="#CC9A71"/>
</svg>
