<svg width="131" height="131" viewBox="0 0 131 131" fill="none" xmlns="http://www.w3.org/2000/svg">
<path d="M131 64.5714C130.81 52.2857 127.287 40.8571 121.242 31.0952C121.146 30.9524 121.099 30.8095 121.004 30.7143C115.196 21.7619 108.151 15.6667 103.581 12.1905C103.534 12.1429 103.486 12.1429 103.439 12.0952C102.82 11.6667 102.249 11.2381 101.63 10.8571C91.2525 4 78.8285 0 65.5 0C29.3227 0 0 29.3333 0 65.5238C0 79.5714 4.42696 92.5714 11.948 103.238C23.4677 119.619 42.3656 130.476 63.7863 131C64.3576 131 64.9288 131 65.5 131C65.738 131 65.976 131 66.1664 131C75.544 130.857 84.8739 128.714 93.347 124.714C107.723 117.905 119.385 105.81 125.669 91.1905C128.953 83.5238 130.714 75.2381 130.952 66.8571C130.952 66.5714 130.952 66.2857 130.952 66C130.952 65.8095 130.952 65.619 130.952 65.4286C131 65.1905 131 64.8571 131 64.5714ZM109.722 54.2381C108.96 55.0952 106.247 55.6667 100.773 56.8571C100.154 57 98.726 57.381 97.4884 58.5714C94.6323 61.2857 98.2976 64.381 98.488 67.381C98.5832 68.5714 98.2976 69.8095 97.6312 70.7619C97.06 71.5714 96.1555 72.0952 95.5367 72.8571C94.6799 73.9524 95.2035 74.9524 95.2987 76.1905C95.4415 78.381 93.1566 79.9048 91.4429 80.7619C89.3485 81.8571 87.1112 82.9524 86.4924 85.4286C85.9211 87.7619 86.54 90.1905 86.3972 92.5238C86.0639 98.4762 85.4927 104.048 81.0182 108.429C80.4945 108.952 79.9233 109.381 79.2569 109.762C76.1628 111.619 72.1642 110.714 68.8797 109.952C63.5007 108.667 58.2645 106.714 53.1711 104.619C41.2231 99.7619 40.9851 98.381 36.2725 97.5238C30.9887 96.5714 23.3249 96.8571 13.0905 102.524C5.5218 91.8095 1.42805 78.9524 1.42805 65.5238C1.42805 48.381 8.0923 32.2857 20.1831 20.1905C32.274 8.09524 48.411 1.42857 65.5 1.42857C78.3525 1.42857 90.6337 5.19048 101.059 12.1905C100.249 14.619 99.3448 18.2381 99.678 22.619C99.9637 26.4762 101.058 28.9048 103.724 35.0952C110.15 49.7619 111.102 52.7143 109.722 54.2381Z" fill="#CC9A71"/>
</svg>
