<?xml version="1.0" encoding="utf-8"?>
<!-- Generator: Adobe Illustrator 24.0.2, SVG Export Plug-In . SVG Version: 6.00 Build 0)  -->
<svg version="1.1" id="Layer_1" xmlns="http://www.w3.org/2000/svg" xmlns:xlink="http://www.w3.org/1999/xlink" x="0px" y="0px"
	 viewBox="0 0 1733 729" style="enable-background:new 0 0 1733 729;" xml:space="preserve">
<style type="text/css">
	.st0{fill:#E4BB99;}
	.st1{fill-rule:evenodd;clip-rule:evenodd;fill:#FFFFFF;}
</style>
<rect class="st0" width="1733" height="729"/>
<path class="st1" d="M707,364.5C707,553.7,553.7,707,364.5,707S22,553.7,22,364.5S175.3,22,364.5,22S707,175.3,707,364.5z M364.5,20
	C554.8,20,709,174.2,709,364.5S554.8,709,364.5,709S20,554.8,20,364.5S174.2,20,364.5,20z"/>
<path class="st1" d="M834,616c0,50.3-40.7,91-91,91s-91-40.7-91-91s40.7-91,91-91S834,565.7,834,616z M743,523c51.4,0,93,41.6,93,93
	s-41.6,93-93,93s-93-41.6-93-93S691.6,523,743,523z"/>
<path class="st1" d="M834,113c0,50.3-40.7,91-91,91s-91-40.7-91-91c0-50.3,40.7-91,91-91S834,62.7,834,113z M743,20
	c51.4,0,93,41.6,93,93c0,51.4-41.6,93-93,93s-93-41.6-93-93C650,61.6,691.6,20,743,20z"/>
</svg>
