<?xml version="1.0" encoding="utf-8"?>
<!-- Generator: Adobe Illustrator 24.0.2, SVG Export Plug-In . SVG Version: 6.00 Build 0)  -->
<svg version="1.1" id="Layer_1" xmlns="http://www.w3.org/2000/svg" xmlns:xlink="http://www.w3.org/1999/xlink" x="0px" y="0px"
	 viewBox="0 0 1733 729" style="enable-background:new 0 0 1733 729;" xml:space="preserve">
<style type="text/css">
	.st0{fill:#CC9A71;}
	.st1{fill-rule:evenodd;clip-rule:evenodd;fill:#FFFFFF;}
</style>
<rect class="st0" width="1733" height="729"/>
<path class="st1" d="M1026,364.5c0,189.2,153.3,342.5,342.5,342.5S1711,553.7,1711,364.5S1557.7,22,1368.5,22S1026,175.3,1026,364.5
	z M1368.5,20C1178.2,20,1024,174.2,1024,364.5S1178.2,709,1368.5,709S1713,554.8,1713,364.5S1558.8,20,1368.5,20z"/>
<path class="st1" d="M899,616c0,50.3,40.7,91,91,91c50.3,0,91-40.7,91-91s-40.7-91-91-91C939.7,525,899,565.7,899,616z M990,523
	c-51.4,0-93,41.6-93,93s41.6,93,93,93c51.4,0,93-41.6,93-93S1041.4,523,990,523z"/>
<path class="st1" d="M899,113c0,50.3,40.7,91,91,91c50.3,0,91-40.7,91-91c0-50.3-40.7-91-91-91C939.7,22,899,62.7,899,113z M990,20
	c-51.4,0-93,41.6-93,93c0,51.4,41.6,93,93,93c51.4,0,93-41.6,93-93C1083,61.6,1041.4,20,990,20z"/>
</svg>
