<svg width="188" height="63" viewBox="0 0 188 63" fill="none" xmlns="http://www.w3.org/2000/svg">
<path d="M63.11 31.0422C63.0183 25.1359 61.3213 19.6417 58.4089 14.9488C58.363 14.8801 58.3401 14.8114 58.2942 14.7656C55.4965 10.4618 52.1025 7.53161 49.901 5.86047C49.878 5.83757 49.8551 5.83757 49.8322 5.81468C49.534 5.60865 49.2588 5.40262 48.9607 5.21948C43.9615 1.92296 37.9761 0 31.555 0C14.1264 0 0 14.1017 0 31.5C0 38.2533 2.13272 44.5029 5.75604 49.6308C11.3057 57.5058 20.4099 62.7253 30.7294 62.9771C31.0046 62.9771 31.2798 62.9771 31.555 62.9771C31.6697 62.9771 31.7843 62.9771 31.8761 62.9771C36.3938 62.9084 40.8885 61.8783 44.9705 59.9553C51.8961 56.6817 57.5145 50.867 60.5416 43.839C62.1239 40.1533 62.9724 36.1701 63.0871 32.141C63.0871 32.0036 63.0871 31.8663 63.0871 31.7289C63.0871 31.6374 63.0871 31.5458 63.0871 31.4542C63.11 31.3398 63.11 31.1795 63.11 31.0422ZM52.8592 26.0745C52.4923 26.4866 51.1852 26.7613 48.5479 27.3336C48.2498 27.4023 47.5618 27.5854 46.9656 28.1577C45.5897 29.4626 47.3555 30.9506 47.4472 32.3928C47.493 32.9651 47.3555 33.5603 47.0344 34.0182C46.7592 34.4073 46.3235 34.6592 46.0254 35.0254C45.6126 35.552 45.8648 36.0327 45.9107 36.6279C45.9795 37.681 44.8788 38.4135 44.0532 38.8256C43.0442 39.3521 41.9663 39.8786 41.6682 41.069C41.393 42.1908 41.6911 43.3583 41.6223 44.48C41.4618 47.3416 41.1866 50.02 39.031 52.1261C38.7787 52.3779 38.5035 52.5839 38.1825 52.7671C36.6919 53.6599 34.7656 53.2249 33.1832 52.8586C30.5919 52.2405 28.0693 51.302 25.6155 50.2947C19.8595 47.9597 19.7448 47.2958 17.4745 46.8837C14.929 46.4259 11.2369 46.5632 6.30642 49.2874C2.66016 44.1366 0.687973 37.9557 0.687973 31.5C0.687973 23.2587 3.89851 15.5211 9.72335 9.7064C15.5482 3.89172 23.3223 0.686773 31.555 0.686773C37.7468 0.686773 43.6633 2.49528 48.6855 5.86047C48.2957 7.02798 47.86 8.76781 48.0205 10.8739C48.1581 12.7282 48.6855 13.8957 49.9697 16.8717C53.0656 23.9226 53.5243 25.3419 52.8592 26.0745Z" fill="white"/>
<path d="M82.144 36.4448C81.0891 35.8725 80.2636 35.0712 79.6673 34.0411C79.0711 33.0338 78.7729 31.8892 78.7729 30.6301C78.7729 29.371 79.0711 28.2264 79.6673 27.2191C80.2636 26.2118 81.0662 25.4106 82.1211 24.8154C83.176 24.2202 84.3226 23.9455 85.6068 23.9455C87.6937 23.9455 89.4136 24.6323 90.7437 26.0287L89.1613 27.5167C88.267 26.5552 87.0974 26.0745 85.6985 26.0745C84.85 26.0745 84.1162 26.2576 83.4282 26.6468C82.7632 27.036 82.2357 27.5625 81.8459 28.2493C81.456 28.936 81.2726 29.7144 81.2726 30.5843C81.2726 31.4771 81.456 32.2554 81.8459 32.9422C82.2357 33.629 82.7632 34.1784 83.4282 34.5447C84.0933 34.911 84.85 35.117 85.6756 35.117C87.0974 35.117 88.267 34.6134 89.2072 33.629L90.7895 35.0941C90.1704 35.8038 89.4136 36.3303 88.5422 36.6966C87.6707 37.0629 86.7076 37.246 85.6985 37.246C84.3685 37.3147 83.176 37.0171 82.144 36.4448Z" fill="white"/>
<path d="M98.7701 26.9215L98.7013 29.2794C98.4032 29.1879 98.0592 29.1421 97.6923 29.1421C96.8209 29.1421 96.1329 29.4855 95.6284 30.1722C95.1239 30.859 94.8946 31.7747 94.8946 32.9193V37.1086H92.6013V26.9902H94.8946V28.2951C95.2615 27.8143 95.6743 27.4709 96.2017 27.242C96.7062 26.9902 97.2337 26.8757 97.784 26.8757C98.0822 26.8528 98.4032 26.8757 98.7701 26.9215Z" fill="white"/>
<path d="M108.448 26.9902H110.97L106.728 37.1087L106.384 37.8641C105.971 38.8027 105.489 39.4666 104.939 39.8786C104.389 40.2678 103.632 40.4738 102.669 40.4738C102.256 40.4738 101.82 40.4052 101.384 40.2907C100.949 40.1533 100.605 40.016 100.33 39.8557L101.018 38.1617C101.27 38.2762 101.522 38.3906 101.797 38.4593C102.072 38.528 102.325 38.5509 102.554 38.5509C102.99 38.5509 103.311 38.4593 103.517 38.2762C103.724 38.093 103.93 37.7725 104.136 37.2918L104.228 37.0858H104.205L99.9397 26.9902H102.462L105.443 34.4989H105.466L108.448 26.9902Z" fill="white"/>
<path d="M113.607 36.9484C112.828 36.7195 112.117 36.4219 111.521 36.0785L112.461 34.2013C113.653 34.8881 114.846 35.2086 116.061 35.2086C116.726 35.2086 117.231 35.1399 117.575 34.9797C117.919 34.8194 118.102 34.5676 118.102 34.2013C118.102 33.9724 118.033 33.7892 117.896 33.629C117.758 33.4916 117.506 33.3543 117.185 33.2627C116.841 33.1483 116.359 33.0567 115.74 32.9422C114.754 32.782 113.997 32.5759 113.424 32.3012C112.874 32.0265 112.461 31.706 112.208 31.3169C111.956 30.9277 111.842 30.4469 111.842 29.8746C111.842 28.8903 112.186 28.1348 112.851 27.5854C113.539 27.0589 114.479 26.7842 115.717 26.7842C116.428 26.7842 117.185 26.8757 118.033 27.0818C118.882 27.2878 119.524 27.5396 120.006 27.8372L119.088 29.7602C118.607 29.4855 118.056 29.2565 117.437 29.0963C116.818 28.936 116.199 28.8674 115.557 28.8674C114.616 28.8674 114.158 29.1421 114.158 29.6915C114.158 29.9662 114.295 30.1722 114.593 30.3325C114.892 30.4927 115.465 30.653 116.336 30.8361C117.368 31.065 118.194 31.3169 118.767 31.6145C119.34 31.9121 119.753 32.2554 120.006 32.6675C120.235 33.0567 120.372 33.5603 120.372 34.1097C120.372 35.117 119.983 35.8953 119.18 36.4448C118.377 37.0171 117.299 37.2918 115.946 37.2918C115.19 37.2918 114.387 37.1773 113.607 36.9484Z" fill="white"/>
<path d="M129.591 36.6279C129.224 36.8339 128.766 36.9942 128.238 37.1086C127.711 37.2231 127.206 37.2918 126.748 37.2918C125.693 37.2918 124.89 37.0171 124.294 36.4448C123.721 35.8724 123.422 35.0712 123.422 33.9953V29.0276H121.519V26.9673H123.468L123.629 24.3118H125.716V26.9673H129.178V29.0276H125.716V33.6519C125.716 34.1555 125.853 34.5447 126.106 34.8194C126.358 35.117 126.725 35.2544 127.16 35.2544C127.459 35.2544 127.803 35.2086 128.169 35.1399C128.536 35.0712 128.857 34.9796 129.133 34.8423L129.591 36.6279Z" fill="white"/>
<path d="M139.154 27.8601C139.934 28.5927 140.347 29.6457 140.347 30.9964V37.0858H138.053V35.8725C137.686 36.2616 137.205 36.605 136.609 36.8797C136.012 37.1544 135.279 37.2918 134.453 37.2918C133.742 37.2918 133.123 37.1544 132.595 36.8797C132.068 36.605 131.655 36.2158 131.357 35.7122C131.059 35.2086 130.921 34.6592 130.921 34.0411C130.921 33.0567 131.265 32.2555 131.93 31.6145C132.595 30.9735 133.627 30.653 135.003 30.653C135.967 30.653 136.976 30.6988 138.053 30.8132C138.007 30.1722 137.778 29.6686 137.32 29.3252C136.861 28.9818 136.219 28.7987 135.393 28.7987C134.935 28.7987 134.43 28.8903 133.903 29.0963C133.375 29.3023 132.939 29.5541 132.573 29.8975L131.449 28.2035C132.045 27.6999 132.71 27.3336 133.444 27.1047C134.178 26.8528 134.912 26.7384 135.623 26.7384C137.182 26.7613 138.374 27.1275 139.154 27.8601ZM137.136 34.5676C137.664 34.1097 137.962 33.5374 138.03 32.8735V32.7133C137.274 32.5988 136.448 32.5531 135.554 32.5531C134.682 32.5531 134.063 32.6675 133.673 32.9193C133.306 33.1711 133.123 33.5145 133.123 33.9495C133.123 34.8194 133.811 35.2544 135.21 35.2544C135.967 35.2544 136.609 35.0254 137.136 34.5676Z" fill="white"/>
<path d="M145.392 37.1086H143.098V23.4648H145.392V37.1086Z" fill="white"/>
<path d="M156.009 36.8111C155.069 36.4677 154.243 36.0327 153.555 35.4604L154.656 33.629C156.124 34.6363 157.614 35.1399 159.151 35.1399C159.931 35.1399 160.55 35.0025 160.986 34.7049C161.421 34.4302 161.628 34.064 161.628 33.6061C161.628 33.2398 161.536 32.9651 161.33 32.7362C161.123 32.5073 160.825 32.3241 160.435 32.1868C160.045 32.0265 159.472 31.8892 158.715 31.7289C157.133 31.3855 155.94 30.9048 155.138 30.2867C154.335 29.6686 153.922 28.7987 153.922 27.6999C153.922 26.9215 154.152 26.2347 154.587 25.6624C155.023 25.0901 155.619 24.6781 156.376 24.3805C157.133 24.0829 157.981 23.9455 158.945 23.9455C159.839 23.9455 160.687 24.0829 161.444 24.3347C162.201 24.5865 162.958 24.9757 163.669 25.5022L162.384 27.242C161.926 26.8986 161.375 26.6468 160.733 26.4408C160.114 26.2347 159.472 26.1432 158.807 26.1432C157.225 26.1432 156.445 26.6697 156.445 27.7456C156.445 28.2035 156.674 28.5927 157.11 28.8674C157.546 29.1421 158.302 29.4168 159.357 29.6457C160.481 29.8975 161.375 30.1722 162.063 30.4698C162.751 30.7674 163.256 31.1566 163.6 31.6374C163.944 32.1181 164.127 32.7362 164.127 33.4688C164.127 34.2471 163.898 34.9339 163.462 35.5291C163.027 36.1014 162.407 36.5592 161.628 36.8797C160.848 37.2002 159.954 37.3605 158.967 37.3605C157.936 37.3147 156.949 37.1315 156.009 36.8111Z" fill="white"/>
<path d="M174.631 27.4709C175.387 27.9288 175.984 28.5469 176.442 29.3481C176.878 30.1493 177.107 31.065 177.107 32.0723C177.107 33.1025 176.878 34.0182 176.442 34.8194C176.007 35.6206 175.387 36.2387 174.654 36.6508C173.897 37.0858 173.071 37.2918 172.131 37.2918C171.397 37.2918 170.732 37.1773 170.113 36.9484C169.494 36.7195 168.989 36.3761 168.553 35.9182V40.2907H166.26V26.9902H168.553V28.1806C168.989 27.7227 169.54 27.3794 170.136 27.1504C170.755 26.9215 171.42 26.807 172.131 26.807C173.048 26.7842 173.874 27.0131 174.631 27.4709ZM173.966 34.3158C174.539 33.7435 174.837 32.988 174.837 32.0494C174.837 31.0879 174.562 30.3096 173.988 29.7373C173.415 29.1421 172.681 28.8674 171.764 28.8674C170.824 28.8674 170.067 29.1421 169.471 29.7373C168.875 30.3096 168.576 31.0879 168.576 32.0494C168.576 33.0338 168.875 33.7892 169.448 34.3616C170.044 34.9339 170.801 35.2086 171.764 35.2086C172.635 35.1857 173.392 34.911 173.966 34.3158Z" fill="white"/>
<path d="M186.807 27.8601C187.61 28.5927 188 29.6457 188 30.9964V37.0858H185.707V35.8725C185.34 36.2616 184.858 36.605 184.262 36.8797C183.666 37.1544 182.932 37.2918 182.106 37.2918C181.395 37.2918 180.776 37.1544 180.249 36.8797C179.721 36.605 179.309 36.2158 179.01 35.7122C178.712 35.2086 178.575 34.6592 178.575 34.0411C178.575 33.0567 178.919 32.2555 179.584 31.6145C180.249 30.9735 181.281 30.653 182.657 30.653C183.62 30.653 184.629 30.6988 185.707 30.8132C185.661 30.1722 185.432 29.6686 184.973 29.3252C184.514 28.9818 183.872 28.7987 183.047 28.7987C182.588 28.7987 182.083 28.8903 181.556 29.0963C181.028 29.3023 180.593 29.5541 180.226 29.8975L179.102 28.2035C179.698 27.6999 180.363 27.3336 181.097 27.1047C181.831 26.8528 182.565 26.7384 183.276 26.7384C184.835 26.7613 186.028 27.1275 186.807 27.8601ZM184.789 34.5676C185.317 34.1097 185.615 33.5374 185.684 32.8735V32.7133C184.927 32.5988 184.101 32.5531 183.207 32.5531C182.336 32.5531 181.716 32.6675 181.327 32.9193C180.96 33.1711 180.776 33.5145 180.776 33.9495C180.776 34.8194 181.464 35.2544 182.863 35.2544C183.62 35.2544 184.262 35.0254 184.789 34.5676Z" fill="white"/>
<path d="M188 15.4066H78.7729V16.0934H188V15.4066Z" fill="white"/>
<path d="M188 46.9066H78.7729V47.5934H188V46.9066Z" fill="white"/>
</svg>
