<?xml version="1.0" encoding="utf-8"?>
<!-- Generator: Adobe Illustrator 24.0.2, SVG Export Plug-In . SVG Version: 6.00 Build 0)  -->
<svg version="1.1" id="Layer_1" xmlns="http://www.w3.org/2000/svg" xmlns:xlink="http://www.w3.org/1999/xlink" x="0px" y="0px"
	 viewBox="0 0 993.9 729" style="enable-background:new 0 0 993.9 729;" xml:space="preserve">
<style type="text/css">
	.st0{fill:#E4BB99;}
	.st1{fill-rule:evenodd;clip-rule:evenodd;fill:#FFFFFF;}
</style>
<rect class="st0" width="993.9" height="729"/>
<g>
	<path class="st1" d="M154.4,364.5c0,189.2,153.3,342.5,342.5,342.5s342.5-153.3,342.5-342.5S686.1,22,496.9,22
		S154.4,175.3,154.4,364.5z M496.9,20c-190.3,0-344.5,154.2-344.5,344.5S306.6,709,496.9,709s344.5-154.2,344.5-344.5
		S687.2,20,496.9,20z"/>
	<path class="st1" d="M27.4,616c0,50.3,40.7,91,91,91c50.3,0,91-40.7,91-91s-40.7-91-91-91C68.1,525,27.4,565.7,27.4,616z
		 M118.4,523c-51.4,0-93,41.6-93,93s41.6,93,93,93s93-41.6,93-93S169.8,523,118.4,523z"/>
	<path class="st1" d="M27.4,113c0,50.3,40.7,91,91,91c50.3,0,91-40.7,91-91s-40.7-91-91-91C68.1,22,27.4,62.7,27.4,113z M118.4,20
		c-51.4,0-93,41.6-93,93s41.6,93,93,93s93-41.6,93-93S169.8,20,118.4,20z"/>
	<path class="st1" d="M966.4,616c0,50.3-40.7,91-91,91c-50.3,0-91-40.7-91-91s40.7-91,91-91C925.7,525,966.4,565.7,966.4,616z
		 M875.4,523c51.4,0,93,41.6,93,93s-41.6,93-93,93s-93-41.6-93-93S824,523,875.4,523z"/>
	<path class="st1" d="M966.4,113c0,50.3-40.7,91-91,91c-50.3,0-91-40.7-91-91s40.7-91,91-91C925.7,22,966.4,62.7,966.4,113z
		 M875.4,20c51.4,0,93,41.6,93,93s-41.6,93-93,93s-93-41.6-93-93S824,20,875.4,20z"/>
</g>
</svg>
